<?xml version="1.0" encoding="UTF-8"?>
<svg version="1.1" xmlns="http://www.w3.org/2000/svg" width="600" height="150">
<path d="M0 0 C1.23073242 -0.05607422 1.23073242 -0.05607422 2.48632812 -0.11328125 C3.28103516 -0.12488281 4.07574219 -0.13648438 4.89453125 -0.1484375 C5.6213208 -0.16825684 6.34811035 -0.18807617 7.09692383 -0.20849609 C11.78369307 1.09961771 14.21090669 6.84117847 16.6484375 10.76171875 C17.28523438 11.78330078 17.92203125 12.80488281 18.578125 13.85742188 C19.56039062 15.44393555 19.56039062 15.44393555 20.5625 17.0625 C21.20960937 18.10083984 21.85671875 19.13917969 22.5234375 20.20898438 C24.42033139 23.2589297 26.30416122 26.31667223 28.1875 29.375 C29.07973267 30.7983667 29.07973267 30.7983667 29.98999023 32.25048828 C30.53598877 33.13333496 31.0819873 34.01618164 31.64453125 34.92578125 C32.12897705 35.70219971 32.61342285 36.47861816 33.11254883 37.27856445 C34.1875 39.375 34.1875 39.375 34.5 42.875 C34.066875 44.03 33.63375 45.185 33.1875 46.375 C32.86394531 47.25027344 32.54039063 48.12554687 32.20703125 49.02734375 C30.52454254 52.38760832 29.24755486 54.15343475 26.1875 56.375 C22.97158856 57.22137077 19.87890202 57.39519096 16.5625 57.4375 C15.30880615 57.46831665 15.30880615 57.46831665 14.02978516 57.49975586 C10.52885914 57.37140023 8.13049816 57.24289451 5.48925781 54.81201172 C2.1875 50.34267241 2.1875 50.34267241 2.1875 47.375 C1.5275 47.375 0.8675 47.375 0.1875 47.375 C-0.080625 48.138125 -0.34875 48.90125 -0.625 49.6875 C-1.840189 52.43766458 -2.40569441 53.63283528 -4.8125 55.375 C-8.09765625 55.73828125 -8.09765625 55.73828125 -11.875 55.6875 C-13.12410156 55.68363281 -14.37320313 55.67976563 -15.66015625 55.67578125 C-18.8125 55.375 -18.8125 55.375 -20.8125 53.375 C-21.18375 54.179375 -21.555 54.98375 -21.9375 55.8125 C-23.8125 58.375 -23.8125 58.375 -26.3125 59.25 C-27.4675 59.29125 -28.6225 59.3325 -29.8125 59.375 C-31.111875 59.46201172 -31.111875 59.46201172 -32.4375 59.55078125 C-35.5278518 59.56337779 -37.8820802 59.37785478 -40.8125 58.375 C-44.2612902 54.79432489 -46.5191891 50.8117367 -47.1171875 45.84375 C-46.54818702 41.23338717 -43.95293545 37.70016694 -40.8125 34.375 C-35.1875 32.6875 -35.1875 32.6875 -31.8125 34.375 C-32.19664063 33.78332031 -32.58078125 33.19164062 -32.9765625 32.58203125 C-36.91896859 26.1202801 -36.91896859 26.1202801 -36.4375 22.75 C-35.90125 21.96625 -35.365 21.1825 -34.8125 20.375 C-34.41224609 19.47394531 -34.41224609 19.47394531 -34.00390625 18.5546875 C-32.81137019 16.26241974 -31.89379285 14.93272438 -29.8125 13.375 C-26.83984375 13.09375 -26.83984375 13.09375 -23.4375 13.125 C-20.01021375 13.19473483 -20.01021375 13.19473483 -16.8125 12.375 C-13.6405548 9.08790168 -11.75959706 5.47688447 -9.8125 1.375 C-7.64275877 -0.79474123 -2.99216132 0.05098958 0 0 Z " fill="#222A26" transform="translate(81.8125,44.625)"/>
<path d="M0 0 C5.61 0 11.22 0 17 0 C19.15757698 8.37721972 21.02878457 16.7609851 22.6875 25.25 C22.91244141 26.38824219 23.13738281 27.52648437 23.36914062 28.69921875 C23.91544842 31.46562844 24.4590295 34.23254259 25 37 C25.33 37 25.66 37 26 37 C26.20681396 35.95021973 26.41362793 34.90043945 26.62670898 33.81884766 C27.39348599 29.9307347 28.16405863 26.04338216 28.93579102 22.15625 C29.26951316 20.4725365 29.60220027 18.78861751 29.93383789 17.10449219 C30.41021261 14.68630304 30.89028299 12.26887301 31.37109375 9.8515625 C31.51904892 9.0963028 31.66700409 8.34104309 31.81944275 7.56289673 C32.88612829 2.22774341 32.88612829 2.22774341 34 0 C39.61 0 45.22 0 51 0 C51 15.84 51 31.68 51 48 C48.03 48 45.06 48 42 48 C41.67 35.79 41.34 23.58 41 11 C38.73817508 22.42784339 38.73817508 22.42784339 36.48266602 33.85693359 C36.19830871 35.28748049 35.91373686 36.71798476 35.62890625 38.1484375 C35.48287964 38.89391846 35.33685303 39.63939941 35.18640137 40.4074707 C34.1140718 45.7718564 34.1140718 45.7718564 33 48 C28.05 48 23.1 48 18 48 C16.50400834 43.51202503 15.39693804 39.45398917 14.4921875 34.8515625 C14.13423096 33.04679443 14.13423096 33.04679443 13.76904297 31.20556641 C13.3264917 28.93818604 13.3264917 28.93818604 12.875 26.625 C11.92625 21.79875 10.9775 16.9725 10 12 C9.67 23.88 9.34 35.76 9 48 C6.03 48 3.06 48 0 48 C0 32.16 0 16.32 0 0 Z " fill="#1C2420" transform="translate(131,50)"/>
<path d="M0 0 C6.85651136 8.05640085 5.42470058 19.01020225 5 29 C4.57146695 33.7077416 3.73654962 37.03196336 0.8125 40.875 C-5.5067117 45.64951551 -11.25617721 46.89783453 -19 46 C-24.70552497 44.31640247 -27.74078012 41.98468923 -31 37 C-31.8125 33.125 -31.8125 33.125 -32 30 C-28.7 30 -25.4 30 -22 30 C-21.01 31.98 -20.02 33.96 -19 36 C-17.3973218 36.10824843 -15.79254252 36.18570645 -14.1875 36.25 C-13.29417969 36.29640625 -12.40085937 36.3428125 -11.48046875 36.390625 C-8.87391923 36.22947051 -8.87391923 36.22947051 -7.1875 34.1875 C-5.64497146 31.34600006 -5.7829826 29.18292189 -6 26 C-6.53882813 26.32226562 -7.07765625 26.64453125 -7.6328125 26.9765625 C-12.18355488 28.94404518 -17.1463547 28.5327964 -22 28 C-26.03654111 26.0171377 -28.6500056 23.83420139 -31 20 C-32.53377179 15.39868463 -32.90474832 10.65220508 -31.31640625 5.99609375 C-29.05844778 1.65819014 -26.24208459 -0.70220418 -22 -3 C-14.23126354 -5.34795483 -6.8268933 -4.44637339 0 0 Z M-20.5625 6.5 C-22.72659573 10.26364476 -22.47993784 12.68055941 -22 17 C-21.08333333 19.08333333 -21.08333333 19.08333333 -19 20 C-14.84298794 21.09807866 -12.6616775 21.25731903 -8.625 19.6875 C-5.91910872 18.2636664 -5.91910872 18.2636664 -5 16 C-4.59808152 12.38273364 -4.79891148 10.40217704 -6.4375 7.125 C-9.699016 4.42032819 -11.72955827 4.32374839 -15.87109375 4.58984375 C-18.17409348 4.91107813 -18.17409348 4.91107813 -20.5625 6.5 Z " fill="#1C2420" transform="translate(528,53)"/>
<path d="M0 0 C1.23073242 -0.05607422 1.23073242 -0.05607422 2.48632812 -0.11328125 C3.28103516 -0.12488281 4.07574219 -0.13648438 4.89453125 -0.1484375 C5.6213208 -0.16825684 6.34811035 -0.18807617 7.09692383 -0.20849609 C11.78369307 1.09961771 14.21090669 6.84117847 16.6484375 10.76171875 C17.28523438 11.78330078 17.92203125 12.80488281 18.578125 13.85742188 C19.56039062 15.44393555 19.56039062 15.44393555 20.5625 17.0625 C21.20960937 18.10083984 21.85671875 19.13917969 22.5234375 20.20898438 C24.42033139 23.2589297 26.30416122 26.31667223 28.1875 29.375 C29.07973267 30.7983667 29.07973267 30.7983667 29.98999023 32.25048828 C30.53598877 33.13333496 31.0819873 34.01618164 31.64453125 34.92578125 C32.12897705 35.70219971 32.61342285 36.47861816 33.11254883 37.27856445 C34.1875 39.375 34.1875 39.375 34.5 42.875 C34.066875 44.03 33.63375 45.185 33.1875 46.375 C32.86394531 47.25027344 32.54039063 48.12554687 32.20703125 49.02734375 C30.52454254 52.38760832 29.24755486 54.15343475 26.1875 56.375 C22.97158856 57.22137077 19.87890202 57.39519096 16.5625 57.4375 C15.30880615 57.46831665 15.30880615 57.46831665 14.02978516 57.49975586 C10.52885914 57.37140023 8.13049816 57.24289451 5.48925781 54.81201172 C2.1875 50.34267241 2.1875 50.34267241 2.1875 47.375 C1.5275 47.375 0.8675 47.375 0.1875 47.375 C-0.080625 48.138125 -0.34875 48.90125 -0.625 49.6875 C-1.840189 52.43766458 -2.40569441 53.63283528 -4.8125 55.375 C-8.09765625 55.73828125 -8.09765625 55.73828125 -11.875 55.6875 C-13.12410156 55.68363281 -14.37320313 55.67976563 -15.66015625 55.67578125 C-18.8125 55.375 -18.8125 55.375 -20.8125 53.375 C-21.18375 54.179375 -21.555 54.98375 -21.9375 55.8125 C-23.8125 58.375 -23.8125 58.375 -26.3125 59.25 C-27.4675 59.29125 -28.6225 59.3325 -29.8125 59.375 C-31.111875 59.46201172 -31.111875 59.46201172 -32.4375 59.55078125 C-35.5278518 59.56337779 -37.8820802 59.37785478 -40.8125 58.375 C-44.2612902 54.79432489 -46.5191891 50.8117367 -47.1171875 45.84375 C-46.54818702 41.23338717 -43.95293545 37.70016694 -40.8125 34.375 C-35.1875 32.6875 -35.1875 32.6875 -31.8125 34.375 C-32.19664063 33.78332031 -32.58078125 33.19164062 -32.9765625 32.58203125 C-36.91896859 26.1202801 -36.91896859 26.1202801 -36.4375 22.75 C-35.90125 21.96625 -35.365 21.1825 -34.8125 20.375 C-34.41224609 19.47394531 -34.41224609 19.47394531 -34.00390625 18.5546875 C-32.81137019 16.26241974 -31.89379285 14.93272438 -29.8125 13.375 C-26.83984375 13.09375 -26.83984375 13.09375 -23.4375 13.125 C-20.01021375 13.19473483 -20.01021375 13.19473483 -16.8125 12.375 C-13.6405548 9.08790168 -11.75959706 5.47688447 -9.8125 1.375 C-7.64275877 -0.79474123 -2.99216132 0.05098958 0 0 Z M-12.1875 6.125 C-13.66576258 8.74796518 -13.66576258 8.74796518 -14.8125 11.375 C-15.4725 12.695 -16.1325 14.015 -16.8125 15.375 C-20.4425 15.375 -24.0725 15.375 -27.8125 15.375 C-28.1425 16.035 -28.4725 16.695 -28.8125 17.375 C-27.50084274 19.9630907 -27.50084274 19.9630907 -25.59375 22.86328125 C-24.90925781 23.96220703 -24.22476563 25.06113281 -23.51953125 26.19335938 C-22.41869239 27.94130302 -21.31339413 29.68610147 -20.20068359 31.42651367 C-19.13143517 33.10570563 -18.08108335 34.79688308 -17.03125 36.48828125 C-16.39123047 37.49673096 -15.75121094 38.50518066 -15.09179688 39.54418945 C-13.62855732 42.78202583 -13.60956759 44.07578097 -14.8125 47.375 C-16.875 49.6875 -16.875 49.6875 -18.8125 51.375 C-18.4825 52.365 -18.1525 53.355 -17.8125 54.375 C-10.34738429 55.41158554 -10.34738429 55.41158554 -3.64453125 52.76953125 C-1.33056274 49.83997017 0.12869313 47.58054082 0.3125 43.8125 C-0.66229891 41.7004357 -1.72261411 39.73538909 -2.8828125 37.72265625 C-3.51960938 36.61792969 -4.15640625 35.51320312 -4.8125 34.375 C-4.45945801 34.94009277 -4.10641602 35.50518555 -3.74267578 36.08740234 C-2.14370502 38.64333686 -0.54065647 41.19668901 1.0625 43.75 C1.61808594 44.63945313 2.17367187 45.52890625 2.74609375 46.4453125 C3.28105469 47.29609375 3.81601563 48.146875 4.3671875 49.0234375 C4.85944824 49.80895996 5.35170898 50.59448242 5.85888672 51.40380859 C7.17082456 53.48575242 7.17082456 53.48575242 9.1875 55.375 C14.44026704 56.2078283 19.98066436 56.72577857 25.1875 55.375 C29.35814808 52.0448007 31.33365421 48.05308522 32.93334961 43.03564453 C33.27227338 39.48752616 32.24342427 38.09905749 30.3203125 35.12890625 C29.36825928 33.63435913 29.36825928 33.63435913 28.39697266 32.10961914 C27.70909668 31.06281982 27.0212207 30.01602051 26.3125 28.9375 C25.62591309 27.86814209 24.93932617 26.79878418 24.23193359 25.69702148 C22.86013347 23.56348666 21.48213958 21.43392016 20.09765625 19.30859375 C18.45627387 16.7877795 16.83134781 14.25802374 15.21875 11.71875 C12.05331297 6.26791878 12.05331297 6.26791878 8.1875 1.375 C-3.43920409 -0.3782876 -3.43920409 -0.3782876 -12.1875 6.125 Z " fill="#212925" transform="translate(81.8125,44.625)"/>
<path d="M0 0 C2.49411267 1.16157263 4.671907 2.51002048 7 4 C7.40605469 3.52304688 7.81210937 3.04609375 8.23046875 2.5546875 C11.32875795 -0.16742972 15.00202813 -0.1025121 19 0 C22.70300487 1.16576079 24.38314783 2.14690658 26.65234375 5.28515625 C28.70248418 10.93641291 28.31336718 16.41728692 28.1875 22.375 C28.16719727 24.19451172 28.16719727 24.19451172 28.14648438 26.05078125 C28.11124582 29.03431206 28.06197525 32.01692458 28 35 C24.7 35 21.4 35 18 35 C17.505 22.625 17.505 22.625 17 10 C12.11785113 8.41074435 12.11785113 8.41074435 9 11 C8.49039309 13.51385259 8.49039309 13.51385259 8.48828125 16.4453125 C8.45283203 17.52167969 8.41738281 18.59804687 8.38085938 19.70703125 C8.35830078 20.83496094 8.33574219 21.96289062 8.3125 23.125 C8.27833984 24.26066406 8.24417969 25.39632812 8.20898438 26.56640625 C8.12630498 29.37750579 8.05722063 32.18828553 8 35 C5.03 35 2.06 35 -1 35 C-1.02505615 34.34926514 -1.0501123 33.69853027 -1.07592773 33.02807617 C-1.19193702 30.08101954 -1.31464115 27.1342787 -1.4375 24.1875 C-1.47681641 23.16333984 -1.51613281 22.13917969 -1.55664062 21.08398438 C-1.59853516 20.10107422 -1.64042969 19.11816406 -1.68359375 18.10546875 C-1.72025146 17.19949951 -1.75690918 16.29353027 -1.79467773 15.36010742 C-1.9208205 12.84951218 -1.9208205 12.84951218 -3 10 C-5.34533951 9.23043864 -5.34533951 9.23043864 -8 9 C-10.33879595 10.64075209 -10.9331103 11.62068141 -11.43237305 14.4519043 C-11.45855713 15.39976807 -11.48474121 16.34763184 -11.51171875 17.32421875 C-11.54716797 18.35224609 -11.58261719 19.38027344 -11.61914062 20.43945312 C-11.65297852 22.04723633 -11.65297852 22.04723633 -11.6875 23.6875 C-11.72166016 24.77095703 -11.75582031 25.85441406 -11.79101562 26.97070312 C-11.8735456 29.6470322 -11.94267937 32.32303159 -12 35 C-14.97 35 -17.94 35 -21 35 C-21 23.78 -21 12.56 -21 1 C-18.03 1 -15.06 1 -12 1 C-11.67 1.66 -11.34 2.32 -11 3 C-10.29875 2.505 -9.5975 2.01 -8.875 1.5 C-5.46289936 -0.28022642 -3.80331361 -0.53246391 0 0 Z " fill="#1C2420" transform="translate(253,63)"/>
<path d="M0 0 C2.5625 1.5625 2.5625 1.5625 4 3 C4.40605469 2.52304688 4.81210937 2.04609375 5.23046875 1.5546875 C8.32875795 -1.16742972 12.00202813 -1.1025121 16 -1 C19.70300487 0.16576079 21.38314783 1.14690658 23.65234375 4.28515625 C25.70248418 9.93641291 25.31336718 15.41728692 25.1875 21.375 C25.16719727 23.19451172 25.16719727 23.19451172 25.14648438 25.05078125 C25.11124582 28.03431206 25.06197525 31.01692458 25 34 C22.03 34 19.06 34 16 34 C15.97494385 33.34926514 15.9498877 32.69853027 15.92407227 32.02807617 C15.80806298 29.08101954 15.68535885 26.1342787 15.5625 23.1875 C15.52318359 22.16333984 15.48386719 21.13917969 15.44335938 20.08398438 C15.40146484 19.10107422 15.35957031 18.11816406 15.31640625 17.10546875 C15.26141968 15.74651489 15.26141968 15.74651489 15.20532227 14.36010742 C15.0791795 11.84951218 15.0791795 11.84951218 14 9 C11.65466049 8.23043864 11.65466049 8.23043864 9 8 C6.66120405 9.64075209 6.0668897 10.62068141 5.56762695 13.4519043 C5.54144287 14.39976807 5.51525879 15.34763184 5.48828125 16.32421875 C5.45283203 17.35224609 5.41738281 18.38027344 5.38085938 19.43945312 C5.35830078 20.51130859 5.33574219 21.58316406 5.3125 22.6875 C5.27833984 23.77095703 5.24417969 24.85441406 5.20898438 25.97070312 C5.1264544 28.6470322 5.05732063 31.32303159 5 34 C2.03 34 -0.94 34 -4 34 C-4.01981934 33.31897217 -4.03963867 32.63794434 -4.06005859 31.9362793 C-4.15526983 28.85296083 -4.26496466 25.77032351 -4.375 22.6875 C-4.4059375 21.61564453 -4.436875 20.54378906 -4.46875 19.43945312 C-4.50742187 18.41142578 -4.54609375 17.38339844 -4.5859375 16.32421875 C-4.6173584 15.37635498 -4.6487793 14.42849121 -4.68115234 13.4519043 C-4.8489051 10.7469731 -4.8489051 10.7469731 -7 8 C-9.97065509 8.34227572 -9.97065509 8.34227572 -13 9 C-14.25838557 11.51677113 -14.20818973 13.41293288 -14.31640625 16.2265625 C-14.35830078 17.2578125 -14.40019531 18.2890625 -14.44335938 19.3515625 C-14.50233398 20.97191406 -14.50233398 20.97191406 -14.5625 22.625 C-14.60568359 23.71296875 -14.64886719 24.8009375 -14.69335938 25.921875 C-14.7996453 28.6144517 -14.90168057 31.30712253 -15 34 C-17.97 34 -20.94 34 -24 34 C-24 22.78 -24 11.56 -24 0 C-21.03 0 -18.06 0 -15 0 C-14.67 0.66 -14.34 1.32 -14 2 C-13.360625 1.484375 -12.72125 0.96875 -12.0625 0.4375 C-7.82843253 -1.54991942 -4.47587377 -1.12731895 0 0 Z " fill="#1C2420" transform="translate(465,64)"/>
<path d="M0 0 C4.17475718 2.04219724 6.20170123 4.91510501 8.23828125 8.89453125 C8.8671875 11.3828125 8.8671875 11.3828125 8.8671875 20.3828125 C0.9471875 20.3828125 -6.9728125 20.3828125 -15.1328125 20.3828125 C-13.56605067 24.26169215 -13.56605067 24.26169215 -11.3828125 25.6953125 C-8.28586717 26.64160135 -6.23252094 26.24017866 -3.1328125 25.3828125 C-1.27480011 23.94589295 -1.27480011 23.94589295 -0.1328125 22.3828125 C5.6171875 24.2578125 5.6171875 24.2578125 7.8671875 25.3828125 C6.51563468 29.80607628 4.66828312 31.78694232 0.8671875 34.3828125 C-4.86403325 36.29321942 -10.93518286 36.26683283 -16.5078125 33.8203125 C-20.54257445 31.48911671 -22.61240649 28.76261846 -24.1328125 24.3828125 C-25.83488685 17.91729395 -25.15602149 12.34814825 -22.1328125 6.3828125 C-16.20103188 -0.76574363 -8.9823452 -2.59928671 0 0 Z M-13.0703125 9.1953125 C-15.36148346 11.12425841 -15.36148346 11.12425841 -15.1328125 13.3828125 C-10.1828125 13.3828125 -5.2328125 13.3828125 -0.1328125 13.3828125 C-2.50924394 8.16896077 -2.50924394 8.16896077 -6.5078125 7.3203125 C-10.19376223 7.07543014 -10.19376223 7.07543014 -13.0703125 9.1953125 Z " fill="#1C2420" transform="translate(312.1328125,63.6171875)"/>
<path d="M0 0 C3.72464091 2.2057812 5.74071731 4.36707809 7.5625 8.375 C8.87295234 14.31753735 9.22767004 19.94086742 6.71875 25.5859375 C3.99289396 29.80364718 0.30034189 32.79571937 -4.4375 34.375 C-11.28354488 35.11675619 -16.76527659 34.43594517 -22.4375 30.375 C-27.54072472 25.01007145 -27.7344143 20.45638714 -27.6484375 13.3203125 C-27.26833504 8.01295587 -25.32343749 4.98444495 -21.4375 1.5625 C-15.2825344 -2.92549575 -6.92254208 -3.13596361 0 0 Z M-16.4375 9.375 C-18.34005165 12.39328532 -18.66117453 14.41570074 -18.25 17.9375 C-18.17394531 18.70191406 -18.09789062 19.46632813 -18.01953125 20.25390625 C-17.32462157 22.78636233 -16.48936572 23.765983 -14.4375 25.375 C-10.8081546 26.47958338 -9.14614033 26.7132147 -5.6875 25.0625 C-2.37691659 22.74719148 -2.37691659 22.74719148 -1.1015625 19.1328125 C-0.94882745 13.68927901 -0.94882745 13.68927901 -3.0625 8.8125 C-8.13069196 5.74491013 -11.77390871 5.61821813 -16.4375 9.375 Z " fill="#1C2420" transform="translate(216.4375,64.625)"/>
<path d="M0 0 C4.51279688 2.30420349 6.33725073 4.40869485 8.09375 9.31640625 C8.45059252 13.6155797 8.37610977 17.88136734 8.28125 22.19140625 C8.26094727 23.939375 8.26094727 23.939375 8.24023438 25.72265625 C8.20500821 28.58771743 8.15574715 31.45182002 8.09375 34.31640625 C5.12375 34.31640625 2.15375 34.31640625 -0.90625 34.31640625 C-0.9155957 33.6709082 -0.92494141 33.02541016 -0.93457031 32.36035156 C-0.98834101 29.42826681 -1.0719734 26.49776617 -1.15625 23.56640625 C-1.17042969 22.550625 -1.18460937 21.53484375 -1.19921875 20.48828125 C-1.30480372 14.70088987 -1.30480372 14.70088987 -3.76171875 9.6171875 C-5.92480637 8.06017226 -5.92480637 8.06017226 -8.96875 8.25390625 C-11.96426819 9.06368604 -11.96426819 9.06368604 -13.546875 11.23828125 C-15.49990388 15.66065699 -15.47534968 19.84215056 -15.59375 24.62890625 C-15.62791016 25.56025391 -15.66207031 26.49160156 -15.69726562 27.45117188 C-15.77939888 29.73916966 -15.84450997 32.02776738 -15.90625 34.31640625 C-18.87625 34.31640625 -21.84625 34.31640625 -24.90625 34.31640625 C-24.90625 23.09640625 -24.90625 11.87640625 -24.90625 0.31640625 C-21.93625 0.31640625 -18.96625 0.31640625 -15.90625 0.31640625 C-15.57625 1.30640625 -15.24625 2.29640625 -14.90625 3.31640625 C-14.473125 2.84203125 -14.04 2.36765625 -13.59375 1.87890625 C-9.90749723 -1.53429076 -4.60251327 -1.65049144 0 0 Z " fill="#1C2420" transform="translate(352.90625,63.68359375)"/>
<path d="M0 0 C2.97 0 5.94 0 9 0 C9.01981934 0.65073486 9.03963867 1.30146973 9.06005859 1.97192383 C9.15529299 4.91919151 9.26497818 7.86574885 9.375 10.8125 C9.4059375 11.83666016 9.436875 12.86082031 9.46875 13.91601562 C9.50742187 14.89892578 9.54609375 15.88183594 9.5859375 16.89453125 C9.6173584 17.80050049 9.6487793 18.70646973 9.68115234 19.63989258 C9.86027919 22.26525392 9.86027919 22.26525392 12 25 C14.32024404 26.01453953 14.32024404 26.01453953 17 26 C19.78508316 24.86250805 19.78508316 24.86250805 22 23 C22.9300889 20.2097333 23.18698769 18.23470458 23.31640625 15.33203125 C23.35830078 14.43935547 23.40019531 13.54667969 23.44335938 12.62695312 C23.48267578 11.69818359 23.52199219 10.76941406 23.5625 9.8125 C23.60568359 8.87212891 23.64886719 7.93175781 23.69335938 6.96289062 C23.79938543 4.64209812 23.90019194 2.32106823 24 0 C26.97 0 29.94 0 33 0 C33 11.22 33 22.44 33 34 C30.03 34 27.06 34 24 34 C23.67 33.01 23.34 32.02 23 31 C22.505 31.474375 22.01 31.94875 21.5 32.4375 C18.09702951 34.56435655 14.95528995 35.22887754 11 35 C6.72112918 33.77964468 3.93113259 32.27184247 1.28125 28.65234375 C-0.6434377 23.16581022 -0.31438508 17.8901373 -0.1875 12.125 C-0.17396484 10.9596875 -0.16042969 9.794375 -0.14648438 8.59375 C-0.11125821 5.72868882 -0.06199715 2.86458623 0 0 Z " fill="#1C2420" transform="translate(399,64)"/>
<path d="M0 0 C5.61 0 11.22 0 17 0 C17 15.84 17 31.68 17 48 C13.7 48 10.4 48 7 48 C6.67 35.79 6.34 23.58 6 11 C4.35 14.63 2.7 18.26 1 22 C-2.3 22 -5.6 22 -9 22 C-6.65506727 14.31383161 -3.44054913 7.2633815 0 0 Z " fill="#1C2420" transform="translate(545,50)"/>
<path d="M0 0 C2.97 0 5.94 0 9 0 C9 3.63 9 7.26 9 11 C11.97 11 14.94 11 18 11 C18 13.64 18 16.28 18 19 C15.03 19 12.06 19 9 19 C9 24.94 9 30.88 9 37 C11.97 37 14.94 37 18 37 C18 39.64 18 42.28 18 45 C15.75106046 45.10823773 13.50062425 45.18569645 11.25 45.25 C9.99703125 45.29640625 8.7440625 45.3428125 7.453125 45.390625 C4 45 4 45 1.5625 43.6875 C-1.00144492 39.27751474 -0.41471859 34.74224039 -0.25 29.75 C-0.23195313 28.71875 -0.21390625 27.6875 -0.1953125 26.625 C-0.14822712 24.08238936 -0.0824805 21.54166838 0 19 C-2.64 19 -5.28 19 -8 19 C-8 16.36 -8 13.72 -8 11 C-5.36 11 -2.72 11 0 11 C0 7.37 0 3.74 0 0 Z " fill="#1C2420" transform="translate(374,53)"/>
<path d="M0 0 C3.9610455 1.3203485 4.48057134 2.9595558 6.6171875 6.50390625 C6.95622101 7.06061508 7.29525452 7.61732391 7.64456177 8.19090271 C8.72960299 9.97660038 9.80247642 11.76926177 10.875 13.5625 C11.94052087 15.32459608 13.00843565 17.08522553 14.07647705 18.84579468 C15.10037453 20.53860929 16.1161769 22.23631171 17.13183594 23.93408203 C18.71705227 26.53564329 20.37350631 29.06105139 22.0703125 31.58984375 C24 35 24 35 23.68139648 37.09301758 C22.52970069 40.31619776 20.75023565 43.06412085 19 46 C15.50116594 44.58309363 14.13077427 43.10266973 12.265625 39.8515625 C11.77731201 39.01633057 11.28899902 38.18109863 10.78588867 37.32055664 C10.27904541 36.43102295 9.77220215 35.54148926 9.25 34.625 C5.19109721 27.63310798 1.03366748 20.91988068 -3.76953125 14.41015625 C-5 12 -5 12 -4.828125 9.421875 C-3.6371976 5.93897411 -1.91081202 3.14359397 0 0 Z " fill="#F9F9F9" transform="translate(73,50)"/>
<path d="M0 0 C3.02734375 0.03515625 3.02734375 0.03515625 5.9375 0.875 C8.9889157 4.17662091 10.89870054 7.92415957 12.89892578 11.90625 C13.9959827 13.98586141 15.20282823 15.95399349 16.46484375 17.9375 C16.88685059 18.60450928 17.30885742 19.27151855 17.74365234 19.95874023 C18.56866744 21.25814702 19.39828532 22.55464508 20.23291016 23.84790039 C22.97400337 28.30412792 22.97400337 28.30412792 22.796875 31.07421875 C22.51328125 31.66847656 22.2296875 32.26273438 21.9375 32.875 C21.68355469 33.50921875 21.42960937 34.1434375 21.16796875 34.796875 C19.92194061 36.98092432 18.9570798 38.34769278 16.9375 39.875 C12.87523253 40.48328224 9.01392966 40.28459341 4.9375 39.875 C4.4425 38.39 4.4425 38.39 3.9375 36.875 C4.576875 36.318125 5.21625 35.76125 5.875 35.1875 C8.27965599 32.49137056 8.78737468 31.46299525 8.9375 27.875 C7.68362629 25.32004793 6.42520292 23.10987074 4.875 20.75 C4.03985181 19.42431867 3.20653113 18.09748436 2.375 16.76953125 C1.96121094 16.11549316 1.54742187 15.46145508 1.12109375 14.78759766 C-1.47222304 10.59699457 -3.75509645 6.22739651 -6.0625 1.875 C-4.34720131 0.15970131 -2.35130059 0.26520859 0 0 Z " fill="#222A26" transform="translate(59.0625,59.125)"/>
<path d="M0 0 C1.23073242 -0.05607422 1.23073242 -0.05607422 2.48632812 -0.11328125 C3.28103516 -0.12488281 4.07574219 -0.13648438 4.89453125 -0.1484375 C5.6213208 -0.16825684 6.34811035 -0.18807617 7.09692383 -0.20849609 C11.78369307 1.09961771 14.21090669 6.84117847 16.6484375 10.76171875 C17.28523438 11.78330078 17.92203125 12.80488281 18.578125 13.85742188 C19.56039062 15.44393555 19.56039062 15.44393555 20.5625 17.0625 C21.20960937 18.10083984 21.85671875 19.13917969 22.5234375 20.20898438 C24.42033139 23.2589297 26.30416122 26.31667223 28.1875 29.375 C29.07973267 30.7983667 29.07973267 30.7983667 29.98999023 32.25048828 C30.53598877 33.13333496 31.0819873 34.01618164 31.64453125 34.92578125 C32.12897705 35.70219971 32.61342285 36.47861816 33.11254883 37.27856445 C34.1875 39.375 34.1875 39.375 34.5 42.875 C34.066875 44.03 33.63375 45.185 33.1875 46.375 C32.86394531 47.25027344 32.54039063 48.12554687 32.20703125 49.02734375 C30.52454254 52.38760832 29.24755486 54.15343475 26.1875 56.375 C22.97158856 57.22137077 19.87890202 57.39519096 16.5625 57.4375 C15.30880615 57.46831665 15.30880615 57.46831665 14.02978516 57.49975586 C10.52885914 57.37140023 8.13049816 57.24289451 5.48925781 54.81201172 C2.1875 50.34267241 2.1875 50.34267241 2.1875 47.375 C1.5275 47.375 0.8675 47.375 0.1875 47.375 C-0.080625 48.138125 -0.34875 48.90125 -0.625 49.6875 C-1.840189 52.43766458 -2.40569441 53.63283528 -4.8125 55.375 C-8.09765625 55.73828125 -8.09765625 55.73828125 -11.875 55.6875 C-13.12410156 55.68363281 -14.37320313 55.67976563 -15.66015625 55.67578125 C-18.8125 55.375 -18.8125 55.375 -20.8125 53.375 C-21.18375 54.179375 -21.555 54.98375 -21.9375 55.8125 C-23.8125 58.375 -23.8125 58.375 -26.3125 59.25 C-27.4675 59.29125 -28.6225 59.3325 -29.8125 59.375 C-31.111875 59.46201172 -31.111875 59.46201172 -32.4375 59.55078125 C-35.5278518 59.56337779 -37.8820802 59.37785478 -40.8125 58.375 C-44.2612902 54.79432489 -46.5191891 50.8117367 -47.1171875 45.84375 C-46.54818702 41.23338717 -43.95293545 37.70016694 -40.8125 34.375 C-35.1875 32.6875 -35.1875 32.6875 -31.8125 34.375 C-32.19664063 33.78332031 -32.58078125 33.19164062 -32.9765625 32.58203125 C-36.91896859 26.1202801 -36.91896859 26.1202801 -36.4375 22.75 C-35.90125 21.96625 -35.365 21.1825 -34.8125 20.375 C-34.41224609 19.47394531 -34.41224609 19.47394531 -34.00390625 18.5546875 C-32.81137019 16.26241974 -31.89379285 14.93272438 -29.8125 13.375 C-26.83984375 13.09375 -26.83984375 13.09375 -23.4375 13.125 C-20.01021375 13.19473483 -20.01021375 13.19473483 -16.8125 12.375 C-13.6405548 9.08790168 -11.75959706 5.47688447 -9.8125 1.375 C-7.64275877 -0.79474123 -2.99216132 0.05098958 0 0 Z M-12.1875 6.125 C-13.66576258 8.74796518 -13.66576258 8.74796518 -14.8125 11.375 C-15.47916667 12.70833333 -16.14583333 14.04166667 -16.8125 15.375 C-17.69292969 15.29378906 -18.57335937 15.21257813 -19.48046875 15.12890625 C-25.95378934 14.55234187 -25.95378934 14.55234187 -31.82421875 16.72265625 C-34.06933556 19.64967101 -34.79789561 21.67398916 -34.875 25.375 C-33.57361641 29.04949483 -31.8666563 32.06184468 -29.8125 35.375 C-30.38097656 35.27058594 -30.94945312 35.16617188 -31.53515625 35.05859375 C-34.19507041 34.7788365 -36.19791399 34.76369079 -38.8125 35.375 C-41.8782032 37.93248502 -44.15771133 40.73562212 -45.8125 44.375 C-45.49209856 48.88848122 -43.70003411 52.22257802 -40.9609375 55.75 C-37.22672723 58.57442086 -33.36515422 58.20259813 -28.8359375 58.14453125 C-24.97053503 57.16070142 -23.84742989 55.74315982 -21.8125 52.375 C-21.94399826 49.62375747 -21.94399826 49.62375747 -22.8125 47.375 C-21.8125 48.375 -21.8125 48.375 -20.5 51.4375 C-17.35770948 54.87209661 -16.43718024 54.96563359 -11.9375 55.25 C-8.42959205 55.08254785 -6.47631178 54.87737661 -3.66015625 52.74609375 C-1.31558317 49.83882313 0.12871243 47.58014528 0.3125 43.8125 C-0.66229891 41.7004357 -1.72261411 39.73538909 -2.8828125 37.72265625 C-3.51960938 36.61792969 -4.15640625 35.51320312 -4.8125 34.375 C-4.45945801 34.94009277 -4.10641602 35.50518555 -3.74267578 36.08740234 C-2.14370502 38.64333686 -0.54065647 41.19668901 1.0625 43.75 C1.61808594 44.63945313 2.17367187 45.52890625 2.74609375 46.4453125 C3.28105469 47.29609375 3.81601563 48.146875 4.3671875 49.0234375 C4.85944824 49.80895996 5.35170898 50.59448242 5.85888672 51.40380859 C7.17082456 53.48575242 7.17082456 53.48575242 9.1875 55.375 C14.44026704 56.2078283 19.98066436 56.72577857 25.1875 55.375 C29.35814808 52.0448007 31.33365421 48.05308522 32.93334961 43.03564453 C33.27227338 39.48752616 32.24342427 38.09905749 30.3203125 35.12890625 C29.68561035 34.1325415 29.0509082 33.13617676 28.39697266 32.10961914 C27.70909668 31.06281982 27.0212207 30.01602051 26.3125 28.9375 C25.62591309 27.86814209 24.93932617 26.79878418 24.23193359 25.69702148 C22.86013347 23.56348666 21.48213958 21.43392016 20.09765625 19.30859375 C18.45627387 16.7877795 16.83134781 14.25802374 15.21875 11.71875 C12.05331297 6.26791878 12.05331297 6.26791878 8.1875 1.375 C-3.43920409 -0.3782876 -3.43920409 -0.3782876 -12.1875 6.125 Z " fill="#F3F3F3" transform="translate(81.8125,44.625)"/>
<path d="M0 0 C0.66 0 1.32 0 2 0 C4.43025616 3.32397508 6.4974336 6.87641825 8.61450195 10.40649414 C9.67843069 12.17244638 10.76499157 13.92296025 11.85351562 15.67382812 C12.85995117 17.34155273 12.85995117 17.34155273 13.88671875 19.04296875 C14.50764404 20.06414795 15.12856934 21.08532715 15.76831055 22.13745117 C17.16559751 25.3848624 17.19100871 26.71369165 16 30 C13.9375 32.3125 13.9375 32.3125 12 34 C4.67578125 22.28125 4.67578125 22.28125 3.3503418 20.14526367 C2.4350433 18.69114545 1.50088302 17.24876129 0.55004883 15.81762695 C0.09267334 15.12113037 -0.36470215 14.42463379 -0.8359375 13.70703125 C-1.25278809 13.08546143 -1.66963867 12.4638916 -2.09912109 11.82348633 C-3.64449585 8.69546354 -2.94915483 6.22712641 -2 3 C-1.34 2.01 -0.68 1.02 0 0 Z " fill="#F6F7F7" transform="translate(52,62)"/>
<path d="M0 0 C4.08211209 3.56947475 6.46601366 7.85269152 9.125 12.5 C9.56714844 13.25925781 10.00929688 14.01851562 10.46484375 14.80078125 C12.41121185 18.15841323 14.28954463 21.51498362 16 25 C11.97449681 23.6581656 11.11714364 21.5772427 9 18 C9 17.34 9 16.68 9 16 C8.34 16 7.68 16 7 16 C6.731875 16.763125 6.46375 17.52625 6.1875 18.3125 C4.972311 21.06266458 4.40680559 22.25783528 2 24 C-1.28515625 24.36328125 -1.28515625 24.36328125 -5.0625 24.3125 C-6.31160156 24.30863281 -7.56070313 24.30476563 -8.84765625 24.30078125 C-12 24 -12 24 -14 22 C-14.45375 22.825 -14.9075 23.65 -15.375 24.5 C-16.179375 25.7375 -16.179375 25.7375 -17 27 C-17.66 27 -18.32 27 -19 27 C-18.690625 26.2575 -18.38125 25.515 -18.0625 24.75 C-17.711875 23.8425 -17.36125 22.935 -17 22 C-16.7525 21.360625 -16.505 20.72125 -16.25 20.0625 C-15.88537488 17.05434278 -16.92415203 14.7845477 -18 12 C-14.72713318 14.7819368 -13.03572303 18.27954067 -11 22 C-3.6901661 22.97659589 -3.6901661 22.97659589 2.9453125 20.6171875 C4.96517753 17.95096567 5.95301263 15.91625367 6.125 12.5625 C4.73996051 9.40768782 2.98413709 6.62239008 1.05859375 3.76953125 C0 2 0 2 0 0 Z " fill="#E4E4E4" transform="translate(75,76)"/>
<path d="M0 0 C3 1 3 1 4.75 3.1875 C6.30865537 6.69447457 6.08629207 8.35316234 5 12 C3.5625 14.375 3.5625 14.375 2 16 C1.34 16 0.68 16 0 16 C-1.61316843 13.62769349 -2.96044483 11.64131875 -4 9 C-3.28307503 5.27199015 -2.10488967 3.15733451 0 0 Z " fill="#F4F5F5" transform="translate(42,83)"/>
<path d="M0 0 C0 0.33 0 0.66 0 1 C-4.95 1.33 -9.9 1.66 -15 2 C-15 2.66 -15 3.32 -15 4 C-15.66 4 -16.32 4 -17 4 C-17.433125 5.1446875 -17.433125 5.1446875 -17.875 6.3125 C-19 9 -19 9 -21 12 C-20.76618257 14.96168749 -20.13383673 16.78469744 -18.5625 19.3125 C-16.53065728 22.80726947 -15.86864648 26.05768137 -15 30 C-19.7124783 25.62818278 -23.7342805 19.97605839 -24.3125 13.5 C-19.20325007 -0.12466648 -13.57561521 -1.46675314 0 0 Z " fill="#5D6360" transform="translate(90,46)"/>
<path d="M0 0 C0.66 0.33 1.32 0.66 2 1 C1.01 2.3303125 1.01 2.3303125 0 3.6875 C-2.09910382 7.1641407 -2.46663533 8.10957193 -2 12 C-0.73596381 14.76267283 -0.73596381 14.76267283 1.0625 17.51953125 C1.69414063 18.54111328 2.32578125 19.56269531 2.9765625 20.61523438 C3.64429688 21.67033203 4.31203125 22.72542969 5 23.8125 C5.66773438 24.88693359 6.33546875 25.96136719 7.0234375 27.06835938 C8.67247283 29.71859473 10.33153866 32.36196738 12 35 C11.01 35.495 11.01 35.495 10 36 C9.4225 34.9275 8.845 33.855 8.25 32.75 C6.93536563 30.42732443 5.87500417 28.87879192 3.9375 27 C1.34134319 24.32009619 0.40087619 21.44382063 -1 18 C-1.73665356 16.78348408 -2.48664058 15.57493827 -3.25 14.375 C-5 11 -5 11 -5 8.4375 C-3.71989804 5.31725147 -1.96768392 2.72936802 0 0 Z " fill="#5F6562" transform="translate(52,60)"/>
<path d="M0 0 C1 2 1 2 1.25 4.1875 C2.33912777 8.27172914 3.53435573 11.41296977 7 14 C11.34286582 14.90015764 15.57355379 15.04536621 20 15 C20 15.66 20 16.32 20 17 C6.73357532 17.5738657 6.73357532 17.5738657 2.66796875 13.8828125 C0.03769716 9.56942308 -1.4380425 6.11347577 -1 1 C-0.67 0.67 -0.34 0.34 0 0 Z " fill="#F7F8F8" transform="translate(36,87)"/>
<path d="M0 0 C0.99 0.33 1.98 0.66 3 1 C2.34 1 1.68 1 1 1 C0.30959426 2.65697379 -0.3530635 4.3255761 -1 6 C-1.268125 6.66 -1.53625 7.32 -1.8125 8 C-2.09137448 10.97466116 -0.60012564 12.56780903 1 15 C1 15.66 1 16.32 1 17 C1.66 17.33 2.32 17.66 3 18 C1.25 17.9375 1.25 17.9375 -1 17 C-3.17962884 14.28439685 -5 11.47905759 -5 7.9375 C-3.55219756 5.13238277 -1.81620891 2.57784491 0 0 Z " fill="#454C49" transform="translate(41,82)"/>
<path d="M0 0 C3.87992315 1.47169499 5.22480768 3.28823424 7 7 C7.79268146 9.65375966 8.40314312 12.29118799 9 15 C6.36115438 12.59888822 4.63586471 9.99444972 2.8125 6.9375 C2.01779297 5.62072266 2.01779297 5.62072266 1.20703125 4.27734375 C0 2 0 2 0 0 Z " fill="#9C9F9E" transform="translate(66,61)"/>
</svg>
