<svg width="139" height="16" viewBox="0 0 139 16" fill="none" xmlns="http://www.w3.org/2000/svg">
<path d="M11.3359 0.93277C10.9663 0.93277 10.6228 1.12291 10.4268 1.4357H10.4258L10.3018 1.63589L10.2568 1.70718L9.62793 2.71402H9.62695L8.83301 3.9855C8.72489 4.15914 8.66992 4.35624 8.66992 4.55386C8.66999 4.75059 8.72494 4.94768 8.83301 5.12125L13.8271 13.1134L14.6455 14.4211L14.6445 14.422L14.6475 14.4269L14.6494 14.4308L14.7734 14.6291V14.63C14.9694 14.9429 15.313 15.1329 15.6826 15.133H19.001C19.3246 15.1329 19.628 14.9869 19.8301 14.7414L19.9102 14.63L20.7666 13.2589L21.5029 12.0802C21.6056 11.9161 21.6611 11.7304 21.665 11.5421L21.6641 11.5412C21.6713 11.3338 21.6159 11.1256 21.5029 10.9445L15.5615 1.4357C15.3655 1.12216 15.0228 0.932859 14.6533 0.93277H11.3359Z" fill="#1D2521" stroke="white" stroke-width="0.283819" stroke-linejoin="round"/>
<path d="M15.2172 14.0452C15.2535 14.0452 15.3447 14.0349 15.403 13.9424L16.1188 12.7966L16.6646 11.9429L16.7661 11.7811C16.8291 11.6803 16.8641 11.5645 16.8669 11.4479C16.871 11.3142 16.836 11.1853 16.7661 11.0728L14.0968 6.80112L11.1244 2.04049C11.0661 1.94724 10.9742 1.93695 10.9379 1.93695C10.9015 1.93695 10.8096 1.94724 10.7514 2.04049L10.7082 2.10974L9.38621 4.20035C9.25179 4.41565 9.25179 4.69402 9.38621 4.90932L15.0293 13.9376L15.032 13.9424C15.0903 14.0349 15.1808 14.0452 15.2178 14.0452H15.2172Z" fill="white"/>
<path d="M5.75068 4.34691C5.4693 4.34114 5.20466 4.48016 5.05043 4.71515L5.05041 4.71612L4.95659 4.85872L4.92328 4.9098L4.45204 5.63056L3.85573 6.54015C3.77072 6.67051 3.72589 6.81969 3.72268 6.97008C3.71954 7.11991 3.75817 7.27132 3.83762 7.4052L3.8376 7.40617L7.33853 13.2776L7.9132 14.242L7.91509 14.245L8.00189 14.3913L8.00187 14.3923C8.14619 14.6337 8.40555 14.7837 8.68706 14.7896L11.0928 14.8399C11.3746 14.8458 11.6399 14.7062 11.794 14.4717L12.4358 13.4898L12.9878 12.6457C13.0684 12.5224 13.1134 12.3816 13.1194 12.2382L13.1184 12.2372C13.127 12.0795 13.0886 11.9208 13.0058 11.7816L8.84062 4.79449C8.69635 4.55278 8.43851 4.40334 8.15738 4.39729L5.75068 4.34691Z" fill="#1D2521" stroke="white" stroke-width="0.283819" stroke-linejoin="round"/>
<path d="M8.36752 13.9549C8.39388 13.9555 8.46017 13.9494 8.50385 13.8831L9.04039 13.063L9.44921 12.4522L9.52525 12.3364C9.57253 12.2642 9.59966 12.1807 9.60341 12.0962C9.60845 11.9993 9.58503 11.9053 9.536 11.8227L7.66493 8.68405L5.58146 5.18624C5.5406 5.11772 5.47411 5.10887 5.44778 5.10831C5.42142 5.10776 5.35461 5.11383 5.31092 5.18058L5.27856 5.23014L4.28804 6.72631C4.18729 6.88041 4.18306 7.0823 4.27728 7.24049L8.23287 13.874L8.23482 13.8775C8.27568 13.9455 8.34115 13.9544 8.36799 13.9549L8.36752 13.9549Z" fill="white"/>
<mask id="path-5-outside-1_400_239" maskUnits="userSpaceOnUse" x="0.342842" y="8.69918" width="8.20621" height="7.23663" fill="black">
<rect fill="white" x="0.342842" y="8.69918" width="8.20621" height="7.23663"/>
<path fill-rule="evenodd" clip-rule="evenodd" d="M7.40314 13.7899L6.44958 15.2185C6.30396 15.4367 6.05622 15.5654 5.79331 15.5568L3.07873 15.4754C2.81585 15.4675 2.57624 15.3249 2.44395 15.0984L1.1891 12.9727C1.04262 12.7216 1.05202 12.4081 1.21404 12.1662L2.58047 10.1177C2.72606 9.9003 2.97379 9.77223 3.23667 9.78011L5.0921 9.83575L7.40314 13.7899Z"/>
</mask>
<path fill-rule="evenodd" clip-rule="evenodd" d="M7.40314 13.7899L6.44958 15.2185C6.30396 15.4367 6.05622 15.5654 5.79331 15.5568L3.07873 15.4754C2.81585 15.4675 2.57624 15.3249 2.44395 15.0984L1.1891 12.9727C1.04262 12.7216 1.05202 12.4081 1.21404 12.1662L2.58047 10.1177C2.72606 9.9003 2.97379 9.77223 3.23667 9.78011L5.0921 9.83575L7.40314 13.7899Z" fill="#1D2521"/>
<path d="M6.44958 15.2185L6.68109 15.373L6.68108 15.3731L6.44958 15.2185ZM7.40314 13.7899L7.64345 13.6495C7.69717 13.7414 7.69376 13.8559 7.63465 13.9444L7.40314 13.7899ZM5.79331 15.5568L5.80165 15.2786L5.80239 15.2786L5.79331 15.5568ZM3.07873 15.4754L3.08707 15.1972L3.07873 15.4754ZM2.44395 15.0984L2.68365 14.9569L2.6843 14.958L2.44395 15.0984ZM1.1891 12.9727L0.949406 13.1142L0.948674 13.113L1.1891 12.9727ZM1.21404 12.1662L1.44559 12.3207L1.44529 12.3211L1.21404 12.1662ZM2.58047 10.1177L2.34891 9.96326L2.34919 9.96284L2.58047 10.1177ZM5.0921 9.83575L5.10044 9.55753C5.19634 9.56041 5.28399 9.61247 5.3324 9.6953L5.0921 9.83575ZM6.44958 15.2185L6.21808 15.064L7.17164 13.6354L7.40314 13.7899L7.63465 13.9444L6.68109 15.373L6.44958 15.2185ZM5.79331 15.5568L5.80239 15.2786C5.96823 15.284 6.1254 15.2028 6.21808 15.064L6.44958 15.2185L6.68108 15.3731C6.48253 15.6705 6.1442 15.8468 5.78423 15.835L5.79331 15.5568ZM3.07873 15.4754L3.08707 15.1972L5.80165 15.2786L5.79331 15.5568L5.78496 15.835L3.07039 15.7536L3.07873 15.4754ZM2.44395 15.0984L2.6843 14.958C2.76822 15.1017 2.9202 15.1922 3.08707 15.1972L3.07873 15.4754L3.07039 15.7536C2.7115 15.7429 2.38426 15.5481 2.20361 15.2388L2.44395 15.0984ZM1.1891 12.9727L1.4288 12.8312L2.68365 14.9569L2.44395 15.0984L2.20426 15.2399L0.949409 13.1142L1.1891 12.9727ZM1.21404 12.1662L1.44529 12.3211C1.34267 12.4743 1.33663 12.6732 1.42953 12.8325L1.1891 12.9727L0.948674 13.113C0.7486 12.77 0.761367 12.3419 0.98278 12.0113L1.21404 12.1662ZM2.58047 10.1177L2.81202 10.2722L1.44559 12.3207L1.21404 12.1662L0.982481 12.0118L2.34891 9.96326L2.58047 10.1177ZM3.23667 9.78011L3.22833 10.0583C3.06137 10.0533 2.9041 10.1347 2.81174 10.2726L2.58047 10.1177L2.34919 9.96284C2.54803 9.66592 2.88622 9.49114 3.24502 9.5019L3.23667 9.78011ZM5.0921 9.83575L5.08375 10.114L3.22833 10.0583L3.23667 9.78011L3.24502 9.5019L5.10044 9.55753L5.0921 9.83575ZM5.0921 9.83575L5.3324 9.6953L7.64345 13.6495L7.40314 13.7899L7.16284 13.9304L4.85179 9.9762L5.0921 9.83575Z" fill="white" mask="url(#path-5-outside-1_400_239)"/>
<path d="M3.01173 10.5868C2.96539 10.5134 2.88839 10.5049 2.85773 10.5049C2.82638 10.5049 2.75013 10.5127 2.70379 10.5868L2.61611 10.728V10.7251L1.57968 12.3838C1.47417 12.5527 1.47417 12.7709 1.57968 12.9391L2.06653 13.7139L2.71732 14.7446C2.76366 14.8181 2.83491 14.8266 2.86343 14.8259C2.89269 14.8259 2.96464 14.8181 3.01098 14.7439L4.13509 12.9441C4.2406 12.7759 4.2413 12.5585 4.13793 12.3888L3.01173 10.5868Z" fill="white"/>
<path d="M25.8084 14.3389V2.0575H30.1068L32.2298 12.7599H32.5456L34.6685 2.0575H38.967V14.3389H36.7213V3.75935H36.4054L34.3001 14.3389H30.4753L28.3699 3.75935H28.0541V14.3389H25.8084ZM45.1399 14.5845C44.2744 14.5845 43.4965 14.4091 42.8064 14.0582C42.1163 13.7073 41.5724 13.1985 41.1748 12.5318C40.7771 11.8651 40.5782 11.0639 40.5782 10.1281V9.84742C40.5782 8.91169 40.7771 8.11047 41.1748 7.44377C41.5724 6.77707 42.1163 6.26826 42.8064 5.91737C43.4965 5.56647 44.2744 5.39102 45.1399 5.39102C46.0054 5.39102 46.7833 5.56647 47.4734 5.91737C48.1635 6.26826 48.7074 6.77707 49.105 7.44377C49.5027 8.11047 49.7016 8.91169 49.7016 9.84742V10.1281C49.7016 11.0639 49.5027 11.8651 49.105 12.5318C48.7074 13.1985 48.1635 13.7073 47.4734 14.0582C46.7833 14.4091 46.0054 14.5845 45.1399 14.5845ZM45.1399 12.6195C45.8183 12.6195 46.3797 12.4031 46.8242 11.9703C47.2687 11.5259 47.4909 10.8943 47.4909 10.0755V9.90005C47.4909 9.08129 47.2687 8.45552 46.8242 8.02275C46.3914 7.57828 45.83 7.35605 45.1399 7.35605C44.4615 7.35605 43.9001 7.57828 43.4556 8.02275C43.0111 8.45552 42.7889 9.08129 42.7889 9.90005V10.0755C42.7889 10.8943 43.0111 11.5259 43.4556 11.9703C43.9001 12.4031 44.4615 12.6195 45.1399 12.6195ZM51.3912 14.3389V5.63665H53.5668V6.58407H53.8826C54.0346 6.29166 54.2861 6.04018 54.637 5.82964C54.9879 5.60741 55.4499 5.49629 56.0231 5.49629C56.643 5.49629 57.1401 5.61911 57.5144 5.86473C57.8887 6.09866 58.1752 6.40862 58.3741 6.79461H58.6899C58.8887 6.42032 59.1694 6.11036 59.532 5.86473C59.8946 5.61911 60.4093 5.49629 61.076 5.49629C61.614 5.49629 62.0994 5.61326 62.5322 5.84719C62.9767 6.06942 63.3276 6.41447 63.5849 6.88233C63.8539 7.3385 63.9884 7.91748 63.9884 8.61928V14.3389H61.7778V8.77718C61.7778 8.29762 61.655 7.94087 61.4093 7.70694C61.1637 7.46131 60.8186 7.3385 60.3742 7.3385C59.8712 7.3385 59.4794 7.50225 59.1987 7.82976C58.9297 8.14556 58.7951 8.60173 58.7951 9.19826V14.3389H56.5845V8.77718C56.5845 8.29762 56.4617 7.94087 56.216 7.70694C55.9704 7.46131 55.6254 7.3385 55.1809 7.3385C54.678 7.3385 54.2861 7.50225 54.0054 7.82976C53.7364 8.14556 53.6019 8.60173 53.6019 9.19826V14.3389H51.3912ZM69.9803 14.5845C69.1147 14.5845 68.3486 14.4032 67.6819 14.0406C67.0269 13.6663 66.5122 13.1458 66.1379 12.4791C65.7753 11.8007 65.594 11.0054 65.594 10.093V9.8825C65.594 8.97017 65.7753 8.18065 66.1379 7.51395C66.5005 6.83555 67.0093 6.31505 67.6643 5.95246C68.3193 5.57817 69.0796 5.39102 69.9452 5.39102C70.799 5.39102 71.5418 5.58402 72.1734 5.97C72.805 6.34429 73.2962 6.87064 73.6471 7.54904C73.998 8.21574 74.1735 8.99357 74.1735 9.8825V10.6369H67.8398C67.8632 11.2335 68.0854 11.7189 68.5065 12.0932C68.9276 12.4674 69.4422 12.6546 70.0504 12.6546C70.6704 12.6546 71.1265 12.5201 71.4189 12.2511C71.7114 11.982 71.9336 11.6838 72.0856 11.3563L73.8928 12.3037C73.729 12.6078 73.4892 12.9412 73.1734 13.3038C72.8693 13.6546 72.4599 13.9588 71.9453 14.2161C71.4306 14.4617 70.7756 14.5845 69.9803 14.5845ZM67.8573 8.98772H71.9277C71.881 8.48476 71.6763 8.08123 71.3137 7.77712C70.9628 7.47301 70.5008 7.32096 69.9276 7.32096C69.3311 7.32096 68.8574 7.47301 68.5065 7.77712C68.1556 8.08123 67.9392 8.48476 67.8573 8.98772ZM75.7902 14.3389V5.63665H77.9658V6.77707H78.2816C78.4219 6.47295 78.6851 6.18639 79.0711 5.91737C79.4571 5.63665 80.0419 5.49629 80.8256 5.49629C81.504 5.49629 82.0947 5.6542 82.5976 5.97C83.1123 6.27411 83.5099 6.70104 83.7907 7.25078C84.0714 7.78882 84.2117 8.42043 84.2117 9.14562V14.3389H82.0011V9.32107C82.0011 8.66606 81.8373 8.17481 81.5098 7.8473C81.194 7.5198 80.7379 7.35605 80.1413 7.35605C79.4629 7.35605 78.9366 7.58413 78.5623 8.04029C78.188 8.48476 78.0009 9.11053 78.0009 9.91759V14.3389H75.7902ZM89.3443 14.3389C88.7712 14.3389 88.3033 14.1634 87.9407 13.8126C87.5898 13.45 87.4144 12.9704 87.4144 12.3739V7.46131H85.2388V5.63665H87.4144V2.93474H89.625V5.63665H92.0111V7.46131H89.625V11.9879C89.625 12.3388 89.7888 12.5142 90.1163 12.5142H91.8006V14.3389H89.3443ZM96.9773 14.4793C96.2989 14.4793 95.7023 14.3272 95.1877 14.0231C94.6847 13.7073 94.2929 13.2745 94.0122 12.7248C93.7315 12.175 93.5911 11.5434 93.5911 10.8299V5.63665H95.8018V10.6545C95.8018 11.3095 95.9597 11.8007 96.2755 12.1282C96.603 12.4558 97.065 12.6195 97.6615 12.6195C98.3399 12.6195 98.8663 12.3973 99.2406 11.9528C99.6148 11.4966 99.802 10.865 99.802 10.058V5.63665H102.013V14.3389H99.8371V13.1985H99.5213C99.3809 13.4909 99.1177 13.7775 98.7318 14.0582C98.3458 14.3389 97.7609 14.4793 96.9773 14.4793ZM104.122 14.3389V5.63665H106.297V6.58407H106.613C106.765 6.29166 107.017 6.04018 107.368 5.82964C107.718 5.60741 108.18 5.49629 108.754 5.49629C109.373 5.49629 109.871 5.61911 110.245 5.86473C110.619 6.09866 110.906 6.40862 111.105 6.79461H111.42C111.619 6.42032 111.9 6.11036 112.263 5.86473C112.625 5.61911 113.14 5.49629 113.806 5.49629C114.345 5.49629 114.83 5.61326 115.263 5.84719C115.707 6.06942 116.058 6.41447 116.315 6.88233C116.584 7.3385 116.719 7.91748 116.719 8.61928V14.3389H114.508V8.77718C114.508 8.29762 114.385 7.94087 114.14 7.70694C113.894 7.46131 113.549 7.3385 113.105 7.3385C112.602 7.3385 112.21 7.50225 111.929 7.82976C111.66 8.14556 111.526 8.60173 111.526 9.19826V14.3389H109.315V8.77718C109.315 8.29762 109.192 7.94087 108.947 7.70694C108.701 7.46131 108.356 7.3385 107.911 7.3385C107.408 7.3385 107.017 7.50225 106.736 7.82976C106.467 8.14556 106.332 8.60173 106.332 9.19826V14.3389H104.122ZM122.781 14.5845C121.869 14.5845 121.073 14.4325 120.395 14.1284C119.728 13.8242 119.208 13.3856 118.833 12.8125C118.471 12.2394 118.289 11.5551 118.289 10.7597H120.57C120.57 11.251 120.74 11.6779 121.079 12.0405C121.43 12.4031 121.997 12.5844 122.781 12.5844C123.576 12.5844 124.185 12.3797 124.606 11.9703C125.027 11.5493 125.237 10.982 125.237 10.2685V9.00526H124.921C124.723 9.23919 124.418 9.46143 124.009 9.67197C123.611 9.8825 123.015 9.98777 122.22 9.98777C121.518 9.98777 120.863 9.83572 120.254 9.53161C119.646 9.2275 119.155 8.78888 118.781 8.21574C118.406 7.63092 118.219 6.92912 118.219 6.11036V5.89982C118.219 5.08106 118.412 4.36757 118.798 3.75935C119.184 3.15113 119.728 2.67742 120.43 2.33822C121.132 1.98732 121.95 1.81187 122.886 1.81187C123.822 1.81187 124.635 1.98732 125.325 2.33822C126.015 2.68911 126.547 3.17452 126.922 3.79444C127.296 4.41436 127.483 5.12785 127.483 5.93491V10.1281C127.483 11.1223 127.278 11.9528 126.869 12.6195C126.471 13.2745 125.916 13.7658 125.202 14.0933C124.5 14.4208 123.693 14.5845 122.781 14.5845ZM122.851 8.1982C123.342 8.1982 123.763 8.11047 124.114 7.93503C124.477 7.75958 124.752 7.51395 124.939 7.19814C125.138 6.88233 125.237 6.50804 125.237 6.07527V5.93491C125.237 5.2799 125.021 4.76526 124.588 4.39097C124.167 4.00498 123.588 3.81199 122.851 3.81199C122.114 3.81199 121.529 4.00498 121.097 4.39097C120.676 4.76526 120.465 5.2799 120.465 5.93491V6.07527C120.465 6.50804 120.559 6.88233 120.746 7.19814C120.945 7.51395 121.225 7.75958 121.588 7.93503C121.95 8.11047 122.372 8.1982 122.851 8.1982ZM132.539 14.3389V3.70672H132.223L130.574 7.60167H128.223L130.732 2.0575H134.785V14.3389H132.539Z" fill="white"/>
</svg>
